<?xml version="1.0" standalone="no"?>
<!DOCTYPE svg PUBLIC "-//W3C//DTD SVG 20010904//EN"
 "http://www.w3.org/TR/2001/REC-SVG-20010904/DTD/svg10.dtd">
<svg version="1.0" xmlns="http://www.w3.org/2000/svg"
 width="1510.000000pt" height="1510.000000pt" viewBox="0 0 1510.000000 1510.000000"
 preserveAspectRatio="xMidYMid meet">
<metadata>
Created by potrace 1.14, written by Peter Selinger 2001-2017
</metadata>
<g transform="translate(0.000000,1510.000000) scale(0.100000,-0.100000)"
fill="#000000" stroke="none">
<path d="M12727 14997 c-135 -133 -190 -227 -170 -292 9 -27 7 -41 -8 -74 -26
-59 -38 -104 -53 -202 -13 -82 -34 -140 -76 -205 -24 -36 -41 -100 -64 -234
-22 -124 -27 -136 -112 -261 -66 -97 -104 -170 -178 -349 -15 -36 -44 -90 -66
-120 -111 -154 -207 -305 -252 -397 -27 -56 -58 -114 -69 -127 l-19 -25 -35
22 c-20 12 -74 52 -121 89 -47 37 -104 75 -127 85 -23 10 -71 33 -107 52 -36
19 -81 42 -100 51 -41 21 -133 45 -210 55 -128 17 -411 133 -512 210 -14 11
-44 30 -65 43 -21 13 -47 36 -59 52 -29 42 -114 130 -124 130 -5 0 -39 27 -77
60 -37 33 -70 60 -74 60 -4 0 -31 30 -60 68 -52 66 -83 96 -121 118 -11 6
-102 89 -204 185 -145 137 -184 179 -184 200 0 14 -5 30 -12 37 -14 14 -88 16
-88 2 0 -5 -11 -10 -24 -10 -13 0 -35 -9 -50 -21 -24 -19 -26 -25 -20 -69 5
-36 2 -57 -11 -82 -26 -52 -84 -240 -83 -273 0 -16 -8 -57 -17 -90 -9 -33 -18
-82 -20 -110 -3 -71 -14 -133 -32 -182 -11 -29 -13 -51 -7 -70 5 -15 9 -89 9
-163 0 -154 13 -368 25 -420 5 -19 11 -61 15 -93 9 -76 26 -115 80 -185 25
-31 79 -105 121 -163 44 -63 93 -120 120 -139 50 -36 112 -115 151 -193 15
-28 58 -85 96 -127 38 -41 85 -92 105 -112 19 -21 39 -38 44 -38 29 0 139
-108 219 -214 85 -113 208 -204 339 -254 30 -11 69 -27 85 -35 17 -9 44 -18
60 -20 32 -5 163 -54 181 -69 6 -4 58 -22 115 -38 57 -17 111 -35 120 -40 9
-5 34 -12 55 -16 22 -3 44 -10 49 -13 9 -7 92 -34 195 -66 25 -7 88 -23 140
-35 52 -12 113 -31 135 -42 22 -10 70 -22 106 -25 59 -5 66 -8 76 -32 15 -37
31 -105 53 -236 21 -121 54 -217 93 -269 23 -30 35 -84 52 -251 3 -27 9 -68
15 -90 5 -22 10 -67 10 -100 0 -69 36 -171 89 -253 31 -48 33 -55 23 -92 -5
-22 -8 -50 -5 -61 4 -14 -4 -30 -27 -52 -18 -18 -43 -48 -55 -67 -13 -19 -35
-48 -49 -65 -15 -16 -66 -88 -113 -160 -60 -90 -115 -158 -182 -225 -93 -92
-190 -217 -225 -290 -9 -19 -41 -73 -71 -120 -31 -47 -73 -121 -95 -165 -22
-44 -56 -107 -75 -140 -20 -33 -41 -71 -48 -85 -21 -44 -32 -51 -53 -32 -11
10 -44 33 -74 52 -30 19 -85 58 -122 87 -37 29 -72 53 -77 53 -6 0 -11 4 -11
9 0 5 -12 12 -26 15 -27 7 -135 72 -194 116 -19 15 -66 44 -105 65 -38 21 -81
46 -95 55 -14 10 -43 23 -65 30 -22 7 -46 17 -52 23 -7 5 -13 6 -13 2 0 -4 -6
-3 -12 2 -7 6 -56 18 -108 28 -52 10 -126 33 -165 50 -64 29 -127 46 -270 73
-27 6 -88 23 -135 40 -47 16 -139 46 -205 67 -66 21 -140 46 -164 57 -24 11
-68 26 -98 34 -80 21 -95 31 -83 54 5 10 10 41 10 69 0 28 4 51 9 51 5 0 15
17 21 38 22 66 91 204 152 304 32 53 62 113 65 132 3 20 10 36 14 36 5 0 9 5
9 10 0 24 66 147 100 188 6 7 21 34 33 61 13 26 43 72 69 102 25 30 52 68 61
84 50 95 67 138 73 186 9 80 -10 202 -40 262 -15 29 -41 90 -59 136 -47 122
-54 126 -225 126 l-137 0 -70 -40 c-84 -47 -205 -160 -240 -222 -14 -25 -39
-62 -55 -82 -62 -73 -134 -177 -153 -221 -11 -25 -25 -52 -32 -60 -7 -8 -34
-55 -60 -105 -25 -49 -62 -109 -80 -133 -20 -24 -43 -72 -56 -115 -12 -39 -28
-85 -37 -102 -28 -54 -30 -59 -55 -116 -14 -32 -28 -89 -32 -130 -5 -52 -18
-97 -41 -148 -19 -41 -37 -92 -41 -114 l-6 -38 -46 5 c-25 3 -82 8 -126 12
-44 3 -107 13 -140 21 -33 9 -73 15 -90 15 -16 -1 -79 6 -140 14 -60 9 -195
20 -300 24 -104 5 -202 10 -217 13 -16 2 -37 4 -47 5 -16 2 -18 6 -11 30 27
88 35 266 26 577 -2 64 3 125 19 260 3 28 2 72 -3 98 -6 28 -6 64 -1 87 5 23
4 77 -2 137 -6 54 -13 134 -15 178 -2 44 -13 110 -24 147 -11 36 -20 73 -20
81 0 7 -9 22 -21 33 -12 10 -32 38 -46 61 -25 44 -50 58 -93 54 -14 -1 -50 7
-80 17 -68 23 -252 29 -325 11 -60 -15 -194 -101 -251 -161 -70 -72 -87 -122
-100 -278 -9 -109 11 -450 29 -490 8 -19 23 -80 32 -135 9 -55 23 -125 31
-155 13 -56 17 -84 36 -290 13 -140 11 -282 -5 -292 -7 -4 -37 -10 -67 -13
-96 -10 -158 -26 -193 -49 -22 -15 -55 -26 -93 -29 -33 -3 -79 -13 -104 -22
-25 -9 -69 -21 -99 -26 -30 -6 -75 -21 -100 -34 -25 -13 -71 -29 -101 -35 -73
-17 -212 -60 -225 -70 -5 -4 -59 -34 -120 -65 -60 -32 -117 -63 -125 -71 -9
-7 -33 -20 -54 -29 -54 -23 -138 -91 -275 -225 -252 -245 -337 -321 -344 -309
-1 2 -15 45 -31 94 -16 50 -33 101 -39 115 -6 14 -11 30 -13 37 -2 11 -20 52
-70 158 -13 29 -18 48 -49 175 -61 252 -100 372 -180 550 -25 58 -50 116 -54
130 -8 23 -44 103 -122 266 -16 33 -29 65 -29 70 0 5 -13 25 -28 44 -16 19
-32 49 -35 66 -7 38 7 105 27 119 8 6 26 39 40 74 23 57 58 113 93 149 7 7 20
39 29 70 9 31 31 80 49 109 49 74 194 258 259 328 30 33 66 74 79 90 25 33 65
79 141 161 l48 54 26 -20 c31 -25 37 -25 72 0 18 13 31 16 35 10 6 -10 5 -11
-17 -14 -6 0 -13 -6 -15 -12 -5 -16 110 -8 170 12 47 15 104 47 117 65 3 3 21
10 40 13 63 13 144 37 186 57 23 10 46 19 51 19 5 0 18 9 27 19 22 25 89 41
168 41 80 0 172 29 315 99 23 12 47 21 53 21 5 0 10 5 10 10 0 6 6 10 12 10
16 0 119 51 135 66 7 7 29 22 50 35 21 12 54 38 74 58 86 86 158 136 210 144
13 2 41 11 63 20 21 9 42 17 47 17 5 0 9 5 9 11 0 5 4 8 8 5 9 -5 55 38 143
130 25 27 66 65 89 84 68 55 186 176 202 207 32 62 54 98 69 115 8 10 35 57
59 105 24 49 47 90 50 93 3 3 18 23 35 45 16 22 54 69 85 105 32 36 65 80 76
98 10 17 22 32 26 32 4 0 8 7 8 15 0 8 5 15 10 15 6 0 10 5 10 10 0 6 23 68
51 138 28 70 52 134 54 143 2 9 14 38 26 65 40 87 149 458 149 509 0 33 -15
63 -26 53 -4 -4 -15 -3 -26 3 -11 6 -61 13 -111 15 -102 5 -89 10 -193 -88
-22 -21 -49 -40 -60 -42 -27 -5 -90 -43 -144 -85 -25 -20 -61 -45 -80 -55 -19
-11 -68 -41 -109 -68 -41 -27 -86 -51 -100 -55 -31 -7 -174 -64 -181 -72 -3
-3 -27 -17 -55 -29 -27 -13 -70 -36 -95 -52 -25 -16 -67 -35 -95 -43 -27 -9
-102 -34 -165 -56 -180 -64 -311 -108 -365 -121 -27 -7 -99 -27 -160 -45 -60
-18 -133 -35 -161 -39 -63 -8 -59 -16 -62 159 -3 147 -24 289 -57 385 -12 36
-28 110 -34 165 -7 55 -19 143 -26 195 -8 52 -17 181 -20 285 -9 277 -15 291
-125 298 -57 3 -69 1 -100 -21 -52 -37 -148 -132 -172 -172 -26 -42 -72 -93
-150 -168 -41 -38 -68 -77 -94 -130 -39 -84 -82 -149 -131 -202 -38 -41 -59
-88 -67 -150 -11 -78 -18 -102 -46 -164 -22 -50 -28 -81 -33 -175 -4 -62 -13
-141 -21 -175 -8 -33 -17 -137 -20 -231 -5 -169 -22 -276 -60 -367 -20 -48
-15 -167 11 -248 11 -36 29 -110 38 -165 25 -140 88 -393 109 -437 l18 -38
-158 -161 c-88 -89 -203 -204 -256 -256 -54 -52 -116 -124 -139 -160 -22 -36
-85 -110 -140 -165 -73 -74 -106 -116 -129 -164 -16 -35 -30 -70 -30 -77 0 -6
-14 -32 -31 -57 -35 -53 -109 -194 -119 -230 -15 -51 -103 -161 -169 -211 -69
-52 -100 -99 -101 -154 -1 -34 32 -179 61 -270 44 -142 81 -232 148 -367 39
-79 73 -156 76 -173 9 -57 76 -230 99 -255 38 -43 105 -201 121 -285 11 -60
33 -117 89 -230 74 -148 89 -191 100 -271 5 -41 40 -140 57 -160 5 -6 18 -37
29 -70 11 -32 27 -68 35 -81 14 -21 14 -26 -2 -48 -10 -13 -21 -25 -25 -25
-12 0 -102 -123 -133 -182 -17 -32 -37 -66 -45 -76 -14 -16 -70 -103 -116
-178 -10 -17 -36 -56 -56 -85 -44 -63 -144 -342 -203 -564 -21 -77 -45 -167
-55 -200 -24 -80 -67 -267 -76 -330 -4 -27 -6 -77 -4 -110 3 -71 2 -83 -4
-197 -4 -63 -1 -99 10 -129 8 -24 17 -70 20 -103 12 -142 15 -163 35 -201 12
-22 30 -58 41 -80 37 -71 198 -298 255 -357 14 -15 25 -30 22 -32 -2 -2 -40
-14 -84 -26 -91 -25 -136 -47 -204 -95 -26 -19 -96 -60 -156 -91 -61 -31 -130
-73 -155 -93 -58 -47 -125 -90 -175 -111 -22 -9 -60 -34 -85 -55 -25 -21 -85
-68 -135 -105 -135 -102 -343 -312 -382 -386 -19 -35 -60 -87 -99 -125 -110
-105 -123 -121 -153 -184 -18 -37 -50 -80 -85 -112 -30 -29 -65 -70 -76 -90
-11 -21 -47 -83 -80 -138 -33 -55 -74 -125 -90 -155 -17 -30 -57 -91 -90 -134
-55 -73 -140 -230 -140 -259 0 -7 -12 -32 -27 -57 -97 -167 -166 -313 -207
-438 -24 -75 -47 -153 -51 -171 -4 -19 -21 -67 -37 -105 -16 -39 -31 -80 -33
-90 -3 -11 -12 -42 -21 -69 -20 -59 -10 -91 30 -95 14 -1 26 3 26 8 0 6 6 10
14 10 7 0 25 12 40 26 23 24 26 25 27 8 2 -25 2 -26 -6 -47 -6 -14 -1 -17 26
-17 35 0 87 16 127 38 12 7 22 11 22 8 0 -3 14 1 30 8 30 12 161 159 182 204
6 12 14 22 18 22 4 0 15 19 26 43 10 23 27 51 36 61 10 11 18 23 18 26 0 3 25
33 55 66 30 32 55 62 55 65 0 3 14 24 31 45 17 22 40 57 51 79 29 62 42 82 73
112 44 44 137 173 165 228 14 27 45 70 68 95 24 25 53 59 65 75 12 17 30 39
40 50 11 11 29 36 42 55 44 70 423 435 520 502 33 22 84 63 113 89 29 27 80
65 113 86 144 90 193 125 275 197 24 21 77 59 117 83 39 25 81 53 92 64 12 10
36 24 55 30 40 14 160 89 160 101 0 4 5 8 11 8 6 0 28 13 48 29 20 16 83 52
141 80 58 28 123 62 145 75 46 27 54 26 48 -7 -5 -23 19 -49 89 -98 l22 -16
-44 -23 c-49 -25 -136 -93 -297 -233 -77 -66 -113 -105 -142 -155 -21 -37 -64
-91 -95 -119 -31 -29 -56 -57 -56 -61 0 -5 -11 -15 -25 -22 -13 -7 -23 -17
-22 -23 1 -6 -9 -13 -23 -17 -14 -4 -24 -12 -23 -18 2 -7 -1 -12 -6 -12 -13 0
-195 -188 -199 -206 -2 -8 -7 -14 -11 -14 -4 0 -30 -28 -58 -62 -28 -35 -60
-73 -70 -85 -11 -12 -28 -34 -39 -48 -10 -15 -29 -38 -42 -52 -29 -32 -83
-105 -157 -213 -32 -47 -81 -110 -109 -141 -28 -30 -69 -82 -91 -115 -21 -32
-54 -75 -73 -94 -19 -19 -46 -53 -60 -75 -31 -50 -146 -198 -177 -229 -13 -13
-31 -41 -40 -62 -9 -22 -29 -52 -45 -69 -34 -36 -79 -113 -104 -175 -9 -25
-28 -61 -41 -81 -32 -50 -83 -175 -94 -234 -15 -74 -37 -155 -61 -216 -12 -34
-20 -78 -20 -117 0 -63 0 -63 36 -78 20 -8 66 -16 103 -16 92 -2 137 26 251
157 65 74 97 104 119 108 22 5 38 21 68 67 21 34 67 98 103 142 94 117 155
195 206 263 86 115 99 130 159 191 33 33 100 122 148 197 100 156 172 239 255
293 70 47 70 46 116 114 54 78 171 187 234 218 29 14 72 46 95 71 105 115 237
237 300 279 39 25 97 75 131 110 134 141 180 183 265 241 48 33 107 76 130 95
24 20 46 36 49 36 4 0 32 -25 62 -55 29 -30 58 -55 62 -55 28 0 -28 -74 -149
-195 -46 -46 -80 -91 -96 -126 -13 -30 -45 -82 -70 -115 -45 -59 -97 -156 -97
-181 0 -6 -34 -74 -76 -150 -42 -76 -83 -151 -92 -166 -8 -16 -27 -90 -42
-165 -16 -76 -32 -148 -38 -162 -5 -14 -10 -158 -11 -320 0 -230 2 -303 13
-330 25 -63 79 -293 85 -365 4 -42 13 -80 23 -95 10 -13 18 -38 18 -54 0 -16
6 -37 13 -45 8 -9 22 -45 31 -81 18 -67 39 -100 62 -100 7 0 24 -12 38 -26 24
-26 34 -27 80 -8 14 5 17 4 12 -4 -12 -20 69 -14 95 7 22 18 22 19 11 114 -20
159 -11 284 38 577 12 73 52 195 81 249 10 20 19 39 19 44 0 5 11 32 25 60 38
82 86 198 101 248 8 25 27 72 44 105 16 32 30 68 30 78 0 44 66 190 105 235
22 25 47 58 54 74 13 24 65 77 174 175 20 18 69 77 109 130 40 53 86 111 103
128 16 17 44 50 60 72 32 44 46 50 65 28 6 -8 34 -22 61 -31 27 -9 51 -21 55
-26 10 -17 64 -40 107 -44 23 -3 83 -12 132 -20 50 -9 110 -18 135 -20 25 -3
65 -12 90 -20 25 -8 88 -21 140 -30 52 -9 106 -18 120 -20 73 -13 187 -25 285
-30 61 -3 180 -11 265 -17 246 -19 698 -15 905 7 28 3 99 12 158 20 59 8 169
15 245 15 119 0 330 26 360 44 4 2 46 7 94 10 48 3 99 11 113 16 15 6 39 9 53
8 40 -2 116 13 124 25 4 7 12 6 24 -4 10 -8 15 -9 11 -3 -4 7 -1 14 7 17 9 4
20 -10 32 -41 11 -26 32 -71 47 -101 56 -110 95 -207 101 -257 6 -54 24 -112
50 -163 30 -57 67 -219 92 -401 3 -25 8 -54 10 -65 1 -11 8 -51 14 -90 6 -38
12 -81 15 -95 2 -14 7 -74 10 -135 3 -60 10 -139 15 -175 10 -75 10 -74 16
-278 4 -112 1 -174 -10 -235 -27 -146 -28 -159 -27 -362 1 -201 -4 -250 -44
-412 -18 -71 -18 -71 4 -107 28 -44 50 -57 98 -56 21 1 57 1 81 0 42 -1 112
18 112 31 0 4 19 27 43 52 23 24 53 66 67 93 40 78 113 185 164 239 25 28 49
60 52 72 4 13 10 23 14 23 4 0 13 24 20 53 7 28 44 117 83 196 53 109 77 171
98 260 16 64 44 177 64 251 21 81 39 181 45 250 6 63 17 151 25 196 19 103 19
129 -1 160 -12 18 -15 36 -10 72 20 142 20 138 -13 197 -30 53 -32 61 -30 154
1 54 -1 103 -4 108 -6 9 -18 159 -18 213 0 8 -6 47 -14 85 -36 183 -45 247
-45 336 0 90 -2 99 -39 176 -31 65 -37 83 -25 87 8 3 15 5 17 5 1 -1 42 20 92
45 49 25 98 46 110 46 12 0 28 -12 37 -27 9 -16 25 -37 35 -48 10 -11 39 -49
64 -85 26 -36 57 -74 69 -85 20 -18 80 -101 80 -110 0 -2 20 -33 45 -69 36
-51 57 -70 98 -90 59 -28 100 -63 142 -121 16 -22 38 -47 49 -55 62 -48 124
-122 222 -270 31 -47 65 -96 75 -110 27 -36 131 -186 151 -219 26 -41 75 -183
93 -266 8 -40 17 -79 19 -86 10 -29 17 -139 20 -300 4 -164 4 -167 -26 -240
-56 -140 -96 -274 -99 -335 -2 -25 5 -52 17 -73 17 -29 23 -32 52 -27 19 3 32
1 32 -6 0 -7 28 -9 83 -6 83 5 138 24 182 65 23 20 85 99 85 107 0 3 37 42 83
88 68 69 92 101 133 183 50 101 62 120 101 160 23 24 45 85 89 245 35 129 74
592 54 645 -5 13 -41 67 -80 118 -39 53 -73 108 -77 128 -8 43 -37 101 -82
163 -32 46 -41 71 -70 207 -4 20 -47 101 -94 180 -62 104 -100 156 -137 188
-28 24 -60 62 -72 84 -11 22 -29 48 -39 56 -10 9 -44 39 -76 68 -32 28 -105
93 -163 143 -58 50 -112 96 -120 103 -8 8 -35 25 -60 40 -25 14 -56 36 -70 50
-14 13 -38 32 -53 41 -26 18 -37 46 -17 46 6 0 10 7 10 16 0 8 5 12 10 9 6 -3
10 1 10 9 0 9 6 16 13 16 7 0 19 9 27 21 41 58 34 59 102 -9 35 -34 99 -84
143 -110 75 -45 81 -51 122 -127 45 -86 94 -137 159 -165 31 -14 48 -31 71
-71 43 -75 81 -108 155 -133 52 -18 68 -29 92 -65 16 -24 50 -56 75 -71 88
-54 118 -87 136 -150 14 -49 55 -113 155 -245 86 -113 125 -177 134 -220 4
-16 20 -48 36 -70 58 -79 92 -157 98 -220 8 -100 8 -616 -1 -685 -4 -36 -10
-87 -13 -115 -3 -27 -9 -67 -15 -87 -5 -21 -8 -52 -6 -70 5 -45 52 -134 80
-152 28 -18 224 -31 243 -16 6 6 23 13 35 15 30 6 80 63 112 129 14 28 35 61
46 73 12 12 21 24 21 27 0 3 27 34 61 68 34 35 73 81 87 103 14 22 28 42 32
45 14 10 68 136 75 174 3 22 18 62 33 89 29 57 30 71 18 302 -7 120 -5 161 6
205 14 50 13 63 -4 145 -10 52 -19 141 -21 210 -2 113 -4 122 -29 160 -22 31
-28 51 -28 91 0 85 -18 153 -67 253 -25 53 -54 107 -63 121 -9 14 -23 41 -30
60 -11 29 -50 87 -103 155 -79 103 -116 155 -122 175 -35 111 -155 257 -334
405 -40 33 -88 80 -108 104 -33 39 -124 104 -198 141 -16 8 -43 27 -60 42 -16
16 -68 47 -115 70 -47 24 -98 55 -115 69 -38 32 -111 81 -150 101 -41 20 -79
42 -85 49 -3 3 -14 9 -25 12 -11 4 -58 19 -104 35 l-83 29 37 36 c21 21 42 37
47 37 4 0 8 6 8 13 0 8 11 20 25 27 14 7 23 15 21 18 -3 2 6 14 20 27 13 12
24 27 24 34 0 6 3 11 8 11 4 0 16 16 27 35 10 20 39 56 63 82 32 32 52 67 71
117 24 69 25 78 25 296 -2 450 -22 594 -114 825 -28 68 -50 129 -50 135 0 7
-13 42 -29 78 -43 98 -66 174 -90 289 -12 57 -30 118 -41 135 -11 18 -20 41
-20 50 0 10 -22 42 -48 71 -26 29 -54 68 -62 87 -8 19 -42 71 -76 116 -34 44
-69 94 -77 110 -9 17 -36 53 -62 82 -43 48 -45 52 -26 61 34 18 118 108 161
171 22 33 58 71 78 84 53 35 86 65 127 116 20 25 76 86 123 136 158 167 257
278 311 352 29 39 56 72 60 72 4 0 15 15 26 33 10 17 24 38 29 45 27 33 116
119 146 142 31 23 53 49 133 157 17 24 39 45 48 48 19 6 39 54 39 92 0 28 18
58 66 108 35 37 42 59 24 70 -5 3 -10 17 -10 29 0 13 -11 35 -25 49 -23 22
-26 36 -30 109 -5 83 -7 99 -17 128 -3 8 -11 35 -18 60 -6 25 -32 96 -56 159
-25 63 -47 136 -50 162 -6 52 -75 256 -119 352 -15 32 -40 106 -56 165 -67
247 -81 298 -90 308 -9 11 -84 189 -96 227 -3 11 4 27 22 42 15 15 39 59 57
108 16 45 34 87 39 93 5 6 23 49 39 94 17 46 50 115 74 154 75 121 95 162 137
278 22 62 69 172 104 244 35 72 69 151 75 175 6 24 20 71 31 104 23 73 70 267
103 432 14 67 29 130 35 141 21 40 52 182 61 282 6 58 19 134 30 170 11 36 20
78 20 93 0 16 5 37 11 48 6 12 24 73 41 137 27 102 31 137 34 272 2 85 -1 180
-6 210 -6 30 -21 127 -35 215 -70 449 -95 545 -156 606 -32 32 -46 39 -76 38
-21 0 -55 2 -76 5 -32 3 -42 -1 -70 -27z"/>
</g>
</svg>
